<!DOCTYPE svg PUBLIC "-//W3C//DTD SVG 20010904//EN" "http://www.w3.org/TR/2001/REC-SVG-20010904/DTD/svg10.dtd">
<svg version="1.0" xmlns="http://www.w3.org/2000/svg" width="1600px" height="821px" viewBox="0 0 16000 8210" preserveAspectRatio="xMidYMid meet">
<g id="layer101" fill="#000000" stroke="none">
 <path d="M4415 7689 c-16 -7 -41 -21 -54 -33 -45 -40 -51 -73 -51 -266 l0 -180 40 0 40 0 0 176 0 176 29 29 c23 23 38 29 71 29 95 0 110 -33 110 -250 l0 -160 35 0 35 0 0 182 c0 164 -2 186 -21 225 -13 26 -34 50 -52 60 -39 20 -142 26 -182 12z"/>
 <path d="M4997 7539 l-157 -162 0 157 0 156 -35 0 -35 0 0 -250 0 -251 160 163 160 163 0 -152 0 -153 35 0 35 0 0 245 c0 135 -2 245 -3 245 -2 0 -74 -73 -160 -161z"/>
 <path d="M5527 7588 c-38 -93 -114 -287 -142 -360 -6 -15 -1 -18 34 -18 31 0 43 5 48 18 3 9 29 78 58 152 l53 135 14 -35 c8 -19 34 -88 58 -152 l44 -118 44 0 c31 0 43 4 39 13 -3 6 -34 84 -70 172 -36 88 -78 193 -94 232 -15 40 -31 73 -34 73 -4 0 -27 -51 -52 -112z"/>
 <path d="M6524 7684 c-30 -15 -64 -60 -64 -86 0 -8 12 -20 26 -26 23 -11 28 -9 51 18 22 27 31 31 67 28 34 -2 42 -8 50 -29 17 -50 2 -74 -75 -114 -79 -42 -109 -79 -109 -138 0 -58 23 -101 63 -120 62 -30 123 -21 175 26 29 27 28 39 -7 60 -27 16 -29 16 -46 -3 -33 -36 -105 -19 -105 24 0 28 41 65 124 114 47 28 57 39 66 73 35 129 -95 233 -216 173z"/>
 <path d="M9456 7539 l-156 -162 0 157 0 156 -35 0 -35 0 0 -252 0 -253 47 50 c26 28 98 102 160 167 l113 116 0 -154 0 -154 40 0 40 0 0 245 c0 137 -4 245 -9 245 -5 0 -79 -73 -165 -161z"/>
 <path d="M1750 7050 l0 -640 204 0 c186 0 205 2 210 18 2 9 19 123 37 252 17 129 35 238 39 243 6 7 15 -59 45 -343 9 -80 18 -151 20 -157 3 -10 55 -13 215 -13 l210 0 0 640 0 640 -145 0 -145 0 -1 -362 -1 -363 -48 355 c-27 195 -49 358 -49 363 -1 4 -48 7 -105 7 l-103 0 -12 -107 c-7 -60 -30 -227 -51 -373 l-38 -265 -1 373 -1 372 -140 0 -140 0 0 -640z"/>
 <path d="M2850 7050 l0 -640 160 0 160 0 0 640 0 640 -160 0 -160 0 0 -640z"/>
 <path d="M3290 7050 l0 -642 248 4 c273 5 324 14 386 68 18 17 44 54 57 82 21 48 24 67 24 193 0 164 -7 183 -84 219 l-48 22 44 18 c47 20 83 60 102 116 18 52 25 244 13 338 -17 124 -54 179 -137 202 -23 6 -163 14 -322 17 l-283 6 0 -643z m396 396 c17 -13 19 -29 22 -143 4 -157 -3 -183 -53 -183 l-35 0 0 170 0 170 23 0 c13 0 32 -6 43 -14z m9 -557 c5 -5 10 -56 10 -114 0 -113 -6 -127 -57 -139 l-28 -6 0 141 0 142 32 -7 c18 -3 37 -11 43 -17z"/>
 <path d="M5260 7450 l0 -240 40 0 40 0 0 240 0 240 -40 0 -40 0 0 -240z"/>
 <path d="M5810 7450 l0 -240 125 0 125 0 0 40 0 40 -85 0 -85 0 0 50 0 50 85 0 85 0 0 40 0 40 -85 0 -85 0 0 70 0 70 85 0 85 0 0 40 0 40 -125 0 -125 0 0 -240z"/>
 <path d="M6140 7450 l0 -240 75 0 c130 0 179 37 179 135 0 62 -22 102 -65 117 -29 10 -30 11 -13 37 9 14 43 61 76 103 32 43 58 80 58 83 0 3 -20 5 -44 5 l-44 0 -74 -105 -73 -104 -3 104 -3 105 -34 0 -35 0 0 -240z m162 -57 c22 -20 24 -66 2 -87 -8 -9 -31 -16 -50 -16 l-34 0 0 60 0 60 32 0 c17 0 40 -7 50 -17z"/>
 <path d="M6820 7450 l0 -240 40 0 40 0 0 240 0 240 -40 0 -40 0 0 -240z"/>
 <path d="M7060 7490 l0 -200 -55 0 -55 0 0 -40 0 -40 155 0 155 0 0 40 0 40 -60 0 -60 0 0 200 0 200 -40 0 -40 0 0 -200z"/>
 <path d="M7254 7658 c8 -18 44 -100 79 -183 116 -269 128 -293 138 -270 4 11 48 113 98 227 50 113 93 218 97 232 6 25 4 26 -32 26 -38 0 -40 -1 -64 -60 l-25 -60 -86 0 -86 0 -24 60 -24 60 -42 0 -43 0 14 -32z m252 -185 c-3 -10 -14 -39 -24 -66 l-18 -47 -25 57 c-13 32 -25 61 -27 65 -2 4 20 8 48 8 44 0 51 -2 46 -17z"/>
 <path d="M7780 7490 l0 -199 -57 -3 -58 -3 -3 -37 -3 -38 161 0 161 0 -3 38 -3 37 -57 3 -58 3 0 199 0 200 -40 0 -40 0 0 -200z"/>
 <path d="M8200 7449 l0 -241 104 4 c94 3 107 6 131 28 52 49 55 151 5 182 -18 11 -17 12 3 23 60 29 70 139 18 197 -31 35 -79 47 -183 48 l-78 0 0 -241z m173 160 c29 -16 37 -28 37 -64 0 -16 -4 -35 -8 -41 -13 -19 -50 -34 -86 -34 l-36 0 0 75 0 75 36 0 c19 0 45 -5 57 -11z m10 -230 c12 -15 16 -31 12 -48 -9 -35 -13 -38 -67 -46 l-48 -7 0 67 0 68 42 -6 c27 -4 49 -14 61 -28z"/>
 <path d="M8560 7450 l0 -240 125 0 125 0 0 40 0 40 -85 0 -85 0 0 50 0 50 85 0 85 0 0 40 0 40 -85 0 -85 0 0 70 0 70 85 0 85 0 0 40 0 40 -125 0 -125 0 0 -240z"/>
 <path d="M8880 7450 l0 -240 73 0 c144 0 187 33 187 141 0 57 -25 109 -53 109 -7 0 -18 4 -26 9 -11 7 0 28 53 100 87 120 88 121 38 121 -38 0 -44 -4 -84 -57 -24 -32 -57 -78 -73 -103 l-30 -45 -3 103 -3 102 -39 0 -40 0 0 -240z m164 -56 c18 -18 21 -56 6 -85 -8 -14 -21 -19 -50 -19 l-40 0 0 60 0 60 34 0 c19 0 42 -7 50 -16z"/>
 <path d="M7372 7148 c-29 -29 -2 -72 40 -66 17 2 24 11 26 32 5 41 -37 63 -66 34z"/>
 <path d="M7486 7144 c-19 -19 -20 -25 -3 -48 19 -26 61 -18 65 12 7 44 -32 67 -62 36z"/>
 <path d="M8548 6863 c-15 -32 -43 -98 -64 -147 l-39 -89 -12 64 c-7 35 -20 97 -29 137 l-16 72 -35 0 c-35 0 -35 -1 -29 -32 4 -18 13 -67 21 -108 23 -126 65 -314 74 -335 7 -17 13 -9 41 50 18 39 38 86 45 105 8 19 27 65 43 102 l29 68 45 -103 c25 -56 51 -118 57 -137 20 -60 49 -107 55 -90 3 8 26 110 52 225 25 116 48 212 50 214 2 2 17 -27 35 -65 75 -165 122 -272 141 -321 10 -29 23 -55 28 -58 5 -3 18 14 29 37 71 157 111 249 111 254 0 4 18 46 40 95 22 49 40 92 40 95 0 3 -18 4 -41 2 -40 -3 -42 -5 -63 -58 l-22 -55 -86 -3 -85 -3 -26 61 -26 60 -73 0 -74 0 -23 -117 c-13 -65 -26 -124 -29 -131 -2 -7 -31 47 -63 119 -32 73 -63 137 -67 141 -5 5 -20 -17 -34 -49z m552 -156 c0 -1 -13 -33 -28 -70 l-28 -66 -22 62 c-12 34 -22 65 -22 70 0 4 23 7 50 7 28 0 50 -1 50 -3z"/>
 <path d="M10560 6898 c-5 -13 -34 -78 -63 -146 l-54 -122 -28 135 -28 135 -33 0 c-40 0 -40 0 -15 -117 11 -48 31 -149 46 -223 15 -74 30 -139 34 -143 8 -8 53 84 117 242 35 84 39 91 48 70 6 -13 24 -55 42 -94 32 -70 75 -173 88 -210 12 -32 20 -7 72 229 l48 220 23 -55 c94 -218 179 -408 183 -409 5 0 136 289 159 350 5 14 21 51 35 83 l26 57 -43 0 -42 0 -23 -60 -24 -60 -85 0 -84 0 -26 60 -26 60 -72 0 -72 0 -29 -135 -28 -134 -22 57 c-25 68 -103 232 -110 232 -2 0 -9 -10 -14 -22z m530 -197 c0 -15 -42 -111 -49 -111 -3 0 -15 24 -26 53 -11 28 -21 55 -23 60 -2 4 19 7 47 7 28 0 51 -4 51 -9z"/>
 <path d="M12712 6753 l-161 -168 -1 158 0 157 -35 0 -35 0 0 -245 c0 -135 4 -245 9 -245 4 0 79 74 165 165 l156 164 0 -154 0 -155 35 0 35 0 0 245 c0 135 -2 245 -4 245 -2 0 -76 -75 -164 -167z"/>
 <path d="M14372 6893 c-6 -16 -35 -81 -65 -146 l-55 -117 -11 67 c-14 76 -30 159 -38 186 -4 14 -16 17 -78 17 l-73 0 -74 -100 -73 -101 -3 101 -3 100 -34 0 -35 0 0 -235 0 -235 85 0 c95 0 130 12 151 51 17 34 18 118 3 153 -7 14 -27 32 -45 41 l-33 16 67 93 c37 52 68 93 70 92 1 -2 25 -106 53 -232 27 -125 51 -229 53 -231 2 -2 18 29 36 69 18 40 48 105 65 143 18 39 35 80 39 93 8 25 26 30 26 8 0 -8 17 -52 38 -98 21 -46 51 -113 67 -150 15 -38 31 -68 35 -68 4 0 17 51 29 113 12 61 34 167 49 234 l27 123 49 -113 c125 -287 150 -343 157 -351 8 -9 18 10 100 199 28 66 67 153 85 193 19 41 34 78 34 83 0 6 -19 9 -42 7 -41 -3 -43 -5 -64 -58 l-22 -55 -88 0 -89 0 -20 58 -20 57 -75 0 -75 0 -24 -125 c-14 -69 -27 -125 -30 -125 -8 0 -121 243 -121 258 0 22 -18 12 -28 -15z m532 -205 c-3 -13 -16 -42 -28 -65 l-21 -42 -27 64 -27 65 55 0 c53 0 55 -1 48 -22z m-904 -94 c21 -54 -8 -94 -69 -94 l-31 0 0 60 0 60 45 0 c40 0 47 -3 55 -26z"/>
 <path d="M5120 6891 c-177 -94 -182 -355 -10 -451 60 -33 156 -33 218 -1 41 21 43 23 36 59 -4 20 -8 39 -10 41 -1 2 -17 -7 -35 -20 -48 -34 -124 -37 -169 -7 -75 51 -100 149 -60 235 37 83 130 107 223 57 l48 -25 -3 48 c-3 44 -6 50 -38 65 -48 24 -153 23 -200 -1z"/>
 <path d="M5938 6894 c-27 -14 -58 -60 -58 -86 0 -8 13 -19 29 -25 26 -10 31 -8 50 18 18 23 29 29 61 29 32 0 43 -5 57 -26 15 -23 15 -29 2 -52 -8 -14 -37 -39 -66 -56 -92 -55 -115 -80 -120 -130 -11 -93 40 -146 140 -146 45 0 61 5 86 26 38 32 39 57 5 73 -23 10 -30 9 -49 -9 -41 -38 -98 -22 -98 29 0 40 11 51 89 91 58 29 69 39 87 79 18 42 19 50 6 101 -19 72 -57 100 -138 100 -31 -1 -68 -7 -83 -16z"/>
 <path d="M6360 6894 c-180 -78 -188 -370 -13 -455 60 -29 142 -30 205 -4 47 19 48 21 48 63 0 23 -2 42 -4 42 -3 0 -27 -12 -53 -26 -116 -62 -235 8 -236 139 -1 75 18 120 61 151 50 35 112 35 176 1 26 -14 49 -25 52 -25 2 0 4 20 4 45 0 44 -2 47 -42 65 -52 24 -148 26 -198 4z"/>
 <path d="M13412 6889 c-84 -42 -132 -124 -132 -226 0 -83 22 -134 77 -184 52 -47 100 -62 178 -57 154 10 245 150 205 316 -33 138 -199 215 -328 151z m178 -81 c48 -33 72 -70 77 -121 7 -61 -11 -109 -57 -151 -48 -43 -80 -52 -130 -37 -55 16 -86 45 -104 98 -20 58 -19 87 3 142 34 83 140 117 211 69z"/>
 <path d="M4310 6665 l0 -235 125 0 125 0 0 35 0 35 -85 0 -85 0 0 55 0 55 85 0 85 0 0 35 0 35 -85 0 -85 0 0 110 0 110 -40 0 -40 0 0 -235z"/>
 <path d="M4559 6878 c5 -13 23 -53 40 -91 17 -37 31 -70 31 -73 0 -15 134 -304 141 -304 4 0 13 17 20 38 7 20 49 119 94 219 46 100 86 194 89 208 6 25 5 26 -35 23 -40 -3 -42 -5 -63 -58 l-22 -55 -86 -3 -85 -3 -26 61 c-26 59 -27 60 -66 60 -38 0 -40 -1 -32 -22z m261 -170 c0 -2 -7 -21 -16 -43 -8 -22 -17 -48 -21 -57 -3 -10 -9 -18 -13 -18 -7 0 -50 95 -50 111 0 5 23 9 50 9 28 0 50 -1 50 -2z"/>
 <path d="M5450 6665 l0 -235 35 0 35 0 0 85 0 85 105 0 105 0 0 -85 0 -85 40 0 40 0 0 235 0 235 -40 0 -40 0 0 -115 0 -115 -105 0 -105 0 0 115 0 115 -35 0 -35 0 0 -235z"/>
 <path d="M6680 6665 l0 -235 40 0 40 0 0 85 0 85 105 0 105 0 0 -85 0 -85 35 0 35 0 0 235 0 235 -35 0 -35 0 0 -115 0 -115 -105 0 -105 0 0 115 0 115 -40 0 -40 0 0 -235z"/>
 <path d="M7080 6891 c0 -6 18 -49 40 -96 22 -47 40 -89 40 -93 0 -12 121 -276 130 -286 6 -6 12 -2 16 10 4 10 43 100 87 199 44 99 87 201 97 228 l18 47 -41 0 -42 0 -23 -60 -24 -60 -85 0 -84 0 -26 60 c-26 58 -27 60 -65 60 -21 0 -38 -4 -38 -9z m260 -188 c0 -5 -10 -36 -22 -70 l-22 -62 -28 66 c-15 37 -28 69 -28 70 0 2 23 3 50 3 28 0 50 -3 50 -7z"/>
 <path d="M7540 6665 l0 -235 130 0 130 0 0 35 0 35 -90 0 -90 0 0 55 0 55 90 0 90 0 0 35 0 35 -90 0 -90 0 0 110 0 110 -40 0 -40 0 0 -235z"/>
 <path d="M7940 6700 l0 -200 -60 0 -60 0 0 -35 0 -35 155 0 155 0 0 35 0 35 -60 0 -60 0 0 200 0 200 -35 0 -35 0 0 -200z"/>
 <path d="M9330 6700 l0 -200 -60 0 -60 0 0 -35 0 -35 155 0 155 0 0 35 0 35 -55 0 -55 0 0 200 0 200 -40 0 -40 0 0 -200z"/>
 <path d="M9570 6665 l0 -235 40 0 40 0 0 85 0 85 105 0 105 0 0 -85 0 -85 40 0 40 0 0 235 0 235 -40 0 -40 0 0 -115 0 -115 -105 0 -105 0 0 115 0 115 -40 0 -40 0 0 -235z"/>
 <path d="M10030 6665 l0 -235 125 0 125 0 0 35 0 35 -85 0 -85 0 0 55 0 55 85 0 85 0 0 35 0 35 -85 0 -85 0 0 70 0 70 85 0 85 0 0 40 0 40 -125 0 -125 0 0 -235z"/>
 <path d="M11330 6700 l0 -200 -60 0 -60 0 0 -35 0 -35 160 0 160 0 0 35 0 35 -60 0 -60 0 0 200 0 200 -40 0 -40 0 0 -200z"/>
 <path d="M11570 6665 l0 -235 40 0 40 0 0 235 0 235 -40 0 -40 0 0 -235z"/>
 <path d="M11740 6665 l0 -235 40 0 39 0 3 92 3 92 44 -60 c80 -107 100 -124 148 -124 38 0 57 12 36 22 -5 2 -37 39 -72 83 -36 44 -71 84 -78 88 -10 6 3 28 49 89 35 45 80 105 100 135 l37 53 -52 0 c-51 -1 -53 -2 -84 -48 -18 -26 -39 -56 -48 -67 -8 -11 -31 -42 -50 -70 l-35 -50 0 118 0 117 -40 0 -40 0 0 -235z"/>
 <path d="M12310 6665 l0 -235 35 0 35 0 0 235 0 235 -35 0 -35 0 0 -235z"/>
 <path d="M12980 6665 l0 -235 125 0 125 0 0 35 0 35 -90 0 -90 0 0 55 0 55 90 0 90 0 0 35 0 35 -90 0 -90 0 0 110 0 110 -35 0 -35 0 0 -235z"/>
 <path d="M15140 6700 l0 -200 -55 0 -55 0 0 -35 0 -35 155 0 155 0 0 35 0 35 -60 0 -60 0 0 200 0 200 -40 0 -40 0 0 -200z"/>
 <path d="M15390 6665 l0 -235 35 0 35 0 0 235 0 235 -35 0 -35 0 0 -235z"/>
 <path d="M15560 6665 l0 -235 40 0 39 0 3 86 3 86 68 -86 68 -86 50 0 50 0 -84 103 -85 103 51 71 c29 39 71 96 95 127 23 30 42 58 42 61 0 3 -22 5 -49 5 -47 0 -51 -3 -78 -40 -15 -22 -52 -72 -80 -112 l-53 -71 0 111 0 112 -40 0 -40 0 0 -235z"/>
 <path d="M1693 6141 c-26 -16 -93 -98 -93 -115 0 -2 -37 -61 -82 -130 -81 -122 -183 -280 -325 -501 -39 -60 -113 -176 -164 -256 -52 -81 -134 -210 -184 -288 -84 -131 -125 -195 -325 -507 -41 -64 -85 -133 -96 -153 -19 -32 -87 -140 -247 -391 -53 -84 -109 -182 -154 -270 -30 -61 -29 -105 3 -148 54 -70 148 -109 208 -86 14 5 176 230 187 259 2 6 38 62 80 125 101 153 256 395 496 771 40 63 115 181 168 262 52 82 95 150 95 152 0 2 39 65 88 139 48 74 123 192 167 261 44 70 105 166 135 213 31 48 69 108 85 134 17 26 61 95 98 153 l68 105 444 0 444 0 127 -85 c125 -84 273 -165 300 -165 7 0 16 -12 20 -27 12 -55 16 -63 41 -93 22 -27 31 -30 79 -30 60 0 90 13 217 91 43 27 80 49 83 49 2 0 27 14 55 31 l51 32 151 -6 c206 -8 329 -36 489 -112 201 -94 307 -168 473 -327 82 -78 95 -95 95 -123 0 -46 -44 -193 -91 -302 -25 -60 -39 -108 -39 -136 0 -85 51 -230 224 -639 167 -396 231 -675 176 -765 -24 -40 -32 -40 -104 -7 -101 46 -207 42 -265 -10 -12 -11 -36 -46 -52 -76 -15 -30 -39 -65 -53 -78 -41 -38 -57 -121 -35 -179 9 -24 8 -30 -8 -38 -10 -5 -35 -26 -55 -46 -34 -33 -38 -42 -38 -86 0 -57 -12 -73 -57 -73 -45 0 -133 -35 -167 -66 -26 -25 -28 -31 -24 -88 3 -37 19 -99 41 -157 20 -53 41 -131 46 -175 l10 -79 -47 -95 -48 -95 -45 -2 c-24 -2 -67 -8 -95 -14 -47 -11 -54 -10 -81 10 -24 18 -44 23 -98 23 -78 0 -107 -15 -142 -77 -12 -21 -35 -46 -51 -54 -17 -9 -41 -29 -54 -46 -20 -26 -23 -40 -22 -115 0 -70 7 -103 36 -190 32 -93 197 -443 276 -587 52 -94 156 -237 206 -283 145 -134 189 -171 276 -237 216 -163 491 -285 739 -328 124 -22 341 -20 462 5 171 35 293 87 447 190 149 99 322 277 425 437 l27 42 47 -15 c364 -115 675 -134 857 -51 77 35 177 134 209 204 61 138 55 340 -18 638 -55 223 -69 325 -62 429 8 103 30 175 74 246 46 72 69 91 184 150 115 58 149 94 149 154 0 88 -93 209 -196 252 -66 28 -223 31 -324 5 -112 -28 -264 -104 -375 -187 -110 -83 -277 -249 -355 -355 l-58 -78 -6 31 c-3 17 -6 69 -7 117 0 47 -4 112 -8 144 l-7 57 64 36 c35 20 87 55 115 78 29 23 63 49 77 59 54 37 227 207 298 292 160 192 373 559 477 825 20 52 39 99 42 103 9 14 83 -101 132 -205 26 -57 75 -159 109 -228 33 -69 63 -136 67 -150 10 -33 176 -390 215 -461 16 -31 39 -83 50 -114 11 -32 31 -78 45 -103 16 -29 25 -60 25 -89 0 -84 58 -153 181 -214 33 -17 89 -36 124 -44 80 -16 83 -18 91 -61 3 -19 26 -59 49 -87 23 -29 56 -80 73 -113 26 -51 116 -358 161 -549 34 -141 126 -403 199 -565 39 -88 142 -260 206 -345 207 -275 502 -452 812 -486 129 -14 386 -6 519 16 142 23 335 80 494 146 80 33 166 68 191 78 60 23 413 205 520 267 47 28 96 57 110 65 14 7 50 33 80 56 119 88 104 207 -45 358 -77 79 -99 93 -220 140 -96 38 -101 45 -116 181 -6 54 -13 113 -15 130 -7 51 -60 118 -134 173 -69 50 -104 92 -117 140 -8 31 18 139 79 331 62 197 68 237 39 284 -12 19 -50 56 -84 82 l-62 47 -95 -7 c-52 -3 -107 -9 -122 -12 -23 -5 -38 5 -112 77 -100 96 -121 134 -165 302 -37 142 -61 200 -93 221 -39 25 -147 49 -196 42 -55 -7 -132 -33 -152 -51 -24 -21 -101 -56 -113 -52 -6 2 13 19 43 39 62 39 107 98 121 155 12 54 11 242 -2 305 -9 39 -21 62 -46 85 l-34 33 11 312 c6 172 13 329 17 348 13 74 95 195 192 282 240 216 680 404 1171 502 131 26 449 71 454 65 1 -2 10 -22 18 -44 20 -55 83 -89 150 -81 49 5 112 33 163 72 l31 23 87 -112 c47 -62 109 -141 137 -177 27 -36 74 -99 104 -140 30 -41 81 -103 113 -137 57 -62 59 -63 111 -63 53 0 110 22 162 62 57 44 65 107 24 184 -24 44 -25 53 -15 92 6 23 11 50 11 60 0 32 -62 114 -167 221 l-102 104 60 40 c74 50 135 117 149 166 21 68 23 191 6 289 -9 50 -16 97 -16 103 0 8 326 10 1173 7 942 -2 1179 0 1209 10 46 16 68 67 68 157 0 74 -11 110 -48 148 l-26 27 -7100 0 c-6986 0 -7102 0 -7133 -19z m14177 -156 l0 -45 -142 0 c-79 1 -654 5 -1278 10 -624 4 -1136 7 -1137 6 -1 0 15 -26 36 -57 54 -81 103 -235 104 -329 1 -82 -7 -103 -59 -160 -42 -45 -169 -119 -226 -132 -24 -5 -47 -13 -52 -18 -10 -10 171 -290 187 -290 14 0 6 22 -32 90 -22 39 -37 70 -33 70 4 0 63 -56 132 -125 l124 -124 -27 -62 -27 -62 40 -47 c22 -26 40 -50 40 -54 0 -11 -83 -48 -89 -39 -3 4 -18 26 -32 48 -15 22 -57 78 -94 125 -37 47 -75 96 -84 110 -15 23 -59 80 -246 318 -36 45 -69 82 -73 82 -12 0 -56 -32 -128 -92 -87 -74 -113 -75 -129 -3 -16 66 -28 75 -110 75 -205 0 -694 -101 -1005 -207 -118 -41 -350 -141 -419 -181 -215 -124 -363 -250 -448 -380 -30 -47 -62 -102 -70 -121 -10 -24 -19 -114 -28 -276 -25 -431 -35 -524 -61 -574 -34 -62 -31 -79 7 -46 42 34 97 32 116 -5 16 -31 17 -156 2 -216 -12 -45 -36 -71 -109 -117 -67 -43 -79 -180 -20 -239 23 -23 37 -28 74 -28 53 0 148 30 221 70 65 36 97 43 144 30 44 -11 49 -24 81 -182 21 -105 53 -179 103 -237 68 -79 192 -192 234 -212 49 -23 84 -22 179 8 l52 16 46 -38 c25 -20 46 -43 46 -49 0 -6 -27 -92 -61 -191 -33 -99 -69 -218 -79 -265 l-19 -85 34 -70 c25 -52 49 -83 92 -120 32 -27 79 -73 104 -101 45 -50 46 -52 52 -135 8 -115 34 -225 60 -254 14 -14 50 -32 95 -45 105 -30 215 -107 270 -189 23 -34 42 -68 42 -74 0 -7 -10 -17 -23 -23 -12 -6 -65 -37 -117 -69 -52 -33 -122 -73 -155 -91 -33 -17 -115 -61 -182 -97 -67 -36 -132 -68 -145 -72 -12 -4 -48 -20 -78 -35 -106 -53 -276 -118 -430 -163 -243 -72 -304 -81 -540 -81 -178 1 -215 4 -284 22 -273 75 -492 237 -663 493 -79 117 -110 176 -178 334 -73 170 -105 272 -210 654 -53 195 -107 375 -120 401 -13 25 -42 70 -64 98 l-41 52 25 22 c25 22 34 69 17 95 -14 22 -62 33 -165 39 -89 5 -111 10 -175 40 -49 24 -77 44 -87 63 -8 16 -12 31 -9 34 4 3 8 37 10 75 5 75 -2 87 -46 94 -21 2 -30 17 -61 98 -20 52 -72 165 -117 250 -44 85 -96 196 -115 245 -34 86 -243 519 -307 635 -17 30 -54 113 -83 184 -28 71 -56 129 -61 130 -5 0 -32 -66 -61 -149 -109 -320 -253 -625 -398 -843 -110 -165 -162 -229 -296 -363 -124 -123 -238 -210 -365 -279 -138 -74 -134 -70 -107 -113 33 -54 43 -188 37 -492 -9 -391 6 -456 71 -305 69 161 106 233 176 337 83 125 95 139 202 252 183 191 397 323 570 351 123 20 239 -21 283 -98 25 -46 24 -47 -57 -80 -62 -25 -143 -85 -197 -144 -62 -69 -110 -196 -123 -325 -13 -127 3 -302 44 -461 73 -292 82 -358 66 -474 -21 -154 -80 -232 -208 -278 -60 -22 -84 -25 -208 -25 -164 0 -284 21 -515 92 -138 42 -146 43 -158 26 -7 -10 -48 -67 -90 -128 -86 -124 -230 -275 -342 -358 -92 -68 -231 -138 -348 -174 -83 -26 -97 -28 -287 -27 -173 0 -212 3 -289 22 -238 60 -494 196 -696 370 -85 74 -247 254 -272 302 -7 13 -37 65 -65 114 -101 172 -261 507 -282 593 -38 149 -17 202 24 62 22 -74 90 -236 106 -253 14 -16 39 15 39 48 0 17 -14 80 -30 139 -46 165 -55 264 -24 274 7 2 13 -21 17 -59 3 -35 14 -98 23 -142 l18 -78 17 35 c15 29 47 55 54 45 1 -2 6 -36 12 -76 12 -80 33 -122 62 -122 13 0 26 19 46 68 15 37 53 112 84 167 30 55 72 135 92 177 20 43 48 95 62 115 35 52 57 134 57 215 0 66 -13 115 -80 303 -21 56 -21 60 -4 72 23 17 57 16 118 -2 64 -20 120 -19 137 1 11 13 10 28 0 87 -8 40 -16 84 -18 98 -4 24 1 29 49 52 29 14 65 30 81 36 35 14 34 35 -3 105 -40 77 -40 83 -1 103 28 15 38 29 54 76 29 88 64 95 160 35 44 -28 53 -30 109 -24 74 7 99 22 132 78 87 149 38 431 -151 883 -93 221 -191 469 -212 538 l-21 68 39 92 c39 93 78 218 105 337 19 83 15 89 -116 215 -221 213 -434 347 -686 432 -168 56 -458 81 -579 50 -28 -8 -99 -42 -157 -78 -59 -35 -123 -74 -144 -86 -49 -30 -52 -29 -41 9 16 56 -14 108 -61 108 -45 0 -168 47 -239 91 -36 23 -104 69 -151 103 l-85 61 -513 -3 -513 -3 -36 -57 c-20 -31 -68 -107 -107 -168 -39 -60 -76 -119 -83 -130 -6 -10 -36 -56 -65 -101 -29 -45 -75 -118 -103 -162 -27 -44 -102 -161 -165 -260 -63 -99 -137 -216 -165 -260 -131 -210 -223 -354 -277 -433 -32 -48 -58 -90 -58 -92 0 -3 -39 -66 -87 -140 -83 -128 -128 -198 -330 -516 -47 -74 -101 -159 -120 -187 -18 -29 -39 -53 -46 -53 -8 0 -23 10 -34 23 l-21 22 46 70 c26 39 67 103 92 142 93 150 215 340 263 413 28 41 60 91 71 111 20 34 58 94 251 394 44 68 116 181 160 250 44 70 119 186 166 258 47 73 88 137 90 143 2 5 39 64 82 129 43 66 118 183 167 260 49 77 124 195 167 262 l78 122 7058 1 7057 0 0 -45z m-11550 -4214 c0 -6 -10 -27 -22 -48 -21 -35 -23 -36 -26 -15 -2 13 4 34 12 48 16 24 36 32 36 15z"/>
 </g>
<g id="layer102" fill="#047391" stroke="none">
 <path d="M1750 7050 l0 -640 205 0 c204 0 205 0 210 23 2 12 19 123 36 247 17 124 33 232 36 240 8 19 16 -39 43 -295 12 -110 24 -203 26 -207 3 -5 99 -8 215 -8 l209 0 0 640 0 640 -145 0 -145 0 -1 -362 -1 -363 -48 355 c-27 195 -49 358 -49 363 -1 4 -47 7 -104 7 l-103 0 -13 -107 c-7 -60 -30 -227 -51 -373 l-38 -265 -1 373 -1 372 -140 0 -140 0 0 -640z"/>
 <path d="M2850 7050 l0 -640 160 0 160 0 0 640 0 640 -160 0 -160 0 0 -640z"/>
 <path d="M3290 7050 l0 -642 248 4 c273 5 324 14 386 68 18 17 44 54 57 82 21 48 24 67 24 193 0 164 -7 183 -84 219 l-48 22 44 18 c47 20 83 60 102 116 18 52 25 244 13 338 -17 124 -54 179 -137 202 -23 6 -163 14 -322 17 l-283 6 0 -643z m396 396 c17 -13 19 -29 22 -143 4 -157 -3 -183 -53 -183 l-35 0 0 170 0 170 23 0 c13 0 32 -6 43 -14z m9 -557 c5 -5 10 -56 10 -114 0 -113 -6 -127 -57 -139 l-28 -6 0 141 0 142 32 -7 c18 -3 37 -11 43 -17z"/>
 </g>

</svg>