<?xml version="1.0" encoding="UTF-8" standalone="no"?>
<!-- Created with Inkscape (http://www.inkscape.org/) -->

<svg
   xmlns:dc="http://purl.org/dc/elements/1.1/"
   xmlns:cc="http://creativecommons.org/ns#"
   xmlns:rdf="http://www.w3.org/1999/02/22-rdf-syntax-ns#"
   xmlns:svg="http://www.w3.org/2000/svg"
   xmlns="http://www.w3.org/2000/svg"
   xmlns:sodipodi="http://sodipodi.sourceforge.net/DTD/sodipodi-0.dtd"
   xmlns:inkscape="http://www.inkscape.org/namespaces/inkscape"
   width="374.39999mm"
   height="34.23mm"
   viewBox="0 0 374.39999 34.23"
   version="1.1"
   id="svg308"
   inkscape:version="0.92.2 (5c3e80d, 2017-08-06)"
   sodipodi:docname="mibLogo-large.svg">
  <defs
     id="defs302" />
  <sodipodi:namedview
     id="base"
     pagecolor="#ffffff"
     bordercolor="#666666"
     borderopacity="1.0"
     inkscape:pageopacity="0.0"
     inkscape:pageshadow="2"
     inkscape:zoom="5.6"
     inkscape:cx="121.05481"
     inkscape:cy="83.226293"
     inkscape:document-units="mm"
     inkscape:current-layer="g241"
     showgrid="false"
     inkscape:window-width="3840"
     inkscape:window-height="1973"
     inkscape:window-x="-18"
     inkscape:window-y="-18"
     inkscape:window-maximized="1" />
  <metadata
     id="metadata305">
    <rdf:RDF>
      <cc:Work
         rdf:about="">
        <dc:format>image/svg+xml</dc:format>
        <dc:type
           rdf:resource="http://purl.org/dc/dcmitype/StillImage" />
        <dc:title />
      </cc:Work>
    </rdf:RDF>
  </metadata>
  <g
     inkscape:label="Ebene 1"
     inkscape:groupmode="layer"
     id="layer1"
     transform="translate(0,-262.77)">
    <g
       transform="matrix(0.02645833,0,0,0.02645833,-46.302077,93.23297)"
       id="g241">
      <path
         d="m 4415,7689 c -16,-7 -41,-21 -54,-33 -45,-40 -51,-73 -51,-266 v -180 h 40 40 v 176 176 l 29,29 c 23,23 38,29 71,29 95,0 110,-33 110,-250 v -160 h 35 35 v 182 c 0,164 -2,186 -21,225 -13,26 -34,50 -52,60 -39,20 -142,26 -182,12 z"
         id="path2"
         inkscape:connector-curvature="0"
         style="fill:#000000;stroke:none" />
      <path
         d="m 4997,7539 -157,-162 v 157 156 h -35 -35 v -250 -251 l 160,163 160,163 v -152 -153 h 35 35 v 245 c 0,135 -2,245 -3,245 -2,0 -74,-73 -160,-161 z"
         id="path4"
         inkscape:connector-curvature="0"
         style="fill:#000000;stroke:none" />
      <path
         d="m 5527,7588 c -38,-93 -114,-287 -142,-360 -6,-15 -1,-18 34,-18 31,0 43,5 48,18 3,9 29,78 58,152 l 53,135 14,-35 c 8,-19 34,-88 58,-152 l 44,-118 h 44 c 31,0 43,4 39,13 -3,6 -34,84 -70,172 -36,88 -78,193 -94,232 -15,40 -31,73 -34,73 -4,0 -27,-51 -52,-112 z"
         id="path6"
         inkscape:connector-curvature="0"
         style="fill:#000000;stroke:none" />
      <path
         d="m 6524,7684 c -30,-15 -64,-60 -64,-86 0,-8 12,-20 26,-26 23,-11 28,-9 51,18 22,27 31,31 67,28 34,-2 42,-8 50,-29 17,-50 2,-74 -75,-114 -79,-42 -109,-79 -109,-138 0,-58 23,-101 63,-120 62,-30 123,-21 175,26 29,27 28,39 -7,60 -27,16 -29,16 -46,-3 -33,-36 -105,-19 -105,24 0,28 41,65 124,114 47,28 57,39 66,73 35,129 -95,233 -216,173 z"
         id="path8"
         inkscape:connector-curvature="0"
         style="fill:#000000;stroke:none" />
      <path
         d="m 9456,7539 -156,-162 v 157 156 h -35 -35 v -252 -253 l 47,50 c 26,28 98,102 160,167 l 113,116 v -154 -154 h 40 40 v 245 c 0,137 -4,245 -9,245 -5,0 -79,-73 -165,-161 z"
         id="path10"
         inkscape:connector-curvature="0"
         style="fill:#000000;stroke:none" />
      <path
         d="m 1750,7050 v -640 h 204 c 186,0 205,2 210,18 2,9 19,123 37,252 17,129 35,238 39,243 6,7 15,-59 45,-343 9,-80 18,-151 20,-157 3,-10 55,-13 215,-13 h 210 v 640 640 h -145 -145 l -1,-362 -1,-363 -48,355 c -27,195 -49,358 -49,363 -1,4 -48,7 -105,7 h -103 l -12,-107 c -7,-60 -30,-227 -51,-373 l -38,-265 -1,373 -1,372 h -140 -140 z"
         id="path12"
         inkscape:connector-curvature="0"
         style="fill:#000000;stroke:none" />
      <path
         d="m 2850,7050 v -640 h 160 160 v 640 640 h -160 -160 z"
         id="path14"
         inkscape:connector-curvature="0"
         style="fill:#000000;stroke:none" />
      <path
         d="m 3290,7050 v -642 l 248,4 c 273,5 324,14 386,68 18,17 44,54 57,82 21,48 24,67 24,193 0,164 -7,183 -84,219 l -48,22 44,18 c 47,20 83,60 102,116 18,52 25,244 13,338 -17,124 -54,179 -137,202 -23,6 -163,14 -322,17 l -283,6 z m 396,396 c 17,-13 19,-29 22,-143 4,-157 -3,-183 -53,-183 h -35 v 170 170 h 23 c 13,0 32,-6 43,-14 z m 9,-557 c 5,-5 10,-56 10,-114 0,-113 -6,-127 -57,-139 l -28,-6 v 141 142 l 32,-7 c 18,-3 37,-11 43,-17 z"
         id="path16"
         inkscape:connector-curvature="0"
         style="fill:#000000;stroke:none" />
      <path
         d="m 5260,7450 v -240 h 40 40 v 240 240 h -40 -40 z"
         id="path18"
         inkscape:connector-curvature="0"
         style="fill:#000000;stroke:none" />
      <path
         d="m 5810,7450 v -240 h 125 125 v 40 40 h -85 -85 v 50 50 h 85 85 v 40 40 h -85 -85 v 70 70 h 85 85 v 40 40 h -125 -125 z"
         id="path20"
         inkscape:connector-curvature="0"
         style="fill:#000000;stroke:none" />
      <path
         d="m 6140,7450 v -240 h 75 c 130,0 179,37 179,135 0,62 -22,102 -65,117 -29,10 -30,11 -13,37 9,14 43,61 76,103 32,43 58,80 58,83 0,3 -20,5 -44,5 h -44 l -74,-105 -73,-104 -3,104 -3,105 h -34 -35 z m 162,-57 c 22,-20 24,-66 2,-87 -8,-9 -31,-16 -50,-16 h -34 v 60 60 h 32 c 17,0 40,-7 50,-17 z"
         id="path22"
         inkscape:connector-curvature="0"
         style="fill:#000000;stroke:none" />
      <path
         d="m 6820,7450 v -240 h 40 40 v 240 240 h -40 -40 z"
         id="path24"
         inkscape:connector-curvature="0"
         style="fill:#000000;stroke:none" />
      <path
         d="m 7060,7490 v -200 h -55 -55 v -40 -40 h 155 155 v 40 40 h -60 -60 v 200 200 h -40 -40 z"
         id="path26"
         inkscape:connector-curvature="0"
         style="fill:#000000;stroke:none" />
      <path
         d="m 7254,7658 c 8,-18 44,-100 79,-183 116,-269 128,-293 138,-270 4,11 48,113 98,227 50,113 93,218 97,232 6,25 4,26 -32,26 -38,0 -40,-1 -64,-60 l -25,-60 h -86 -86 l -24,60 -24,60 h -42 -43 z m 252,-185 c -3,-10 -14,-39 -24,-66 l -18,-47 -25,57 c -13,32 -25,61 -27,65 -2,4 20,8 48,8 44,0 51,-2 46,-17 z"
         id="path28"
         inkscape:connector-curvature="0"
         style="fill:#000000;stroke:none" />
      <path
         d="m 7780,7490 v -199 l -57,-3 -58,-3 -3,-37 -3,-38 h 161 161 l -3,38 -3,37 -57,3 -58,3 v 199 200 h -40 -40 z"
         id="path30"
         inkscape:connector-curvature="0"
         style="fill:#000000;stroke:none" />
      <path
         d="m 8200,7449 v -241 l 104,4 c 94,3 107,6 131,28 52,49 55,151 5,182 -18,11 -17,12 3,23 60,29 70,139 18,197 -31,35 -79,47 -183,48 h -78 z m 173,160 c 29,-16 37,-28 37,-64 0,-16 -4,-35 -8,-41 -13,-19 -50,-34 -86,-34 h -36 v 75 75 h 36 c 19,0 45,-5 57,-11 z m 10,-230 c 12,-15 16,-31 12,-48 -9,-35 -13,-38 -67,-46 l -48,-7 v 67 68 l 42,-6 c 27,-4 49,-14 61,-28 z"
         id="path32"
         inkscape:connector-curvature="0"
         style="fill:#000000;stroke:none" />
      <path
         d="m 8560,7450 v -240 h 125 125 v 40 40 h -85 -85 v 50 50 h 85 85 v 40 40 h -85 -85 v 70 70 h 85 85 v 40 40 h -125 -125 z"
         id="path34"
         inkscape:connector-curvature="0"
         style="fill:#000000;stroke:none" />
      <path
         d="m 8880,7450 v -240 h 73 c 144,0 187,33 187,141 0,57 -25,109 -53,109 -7,0 -18,4 -26,9 -11,7 0,28 53,100 87,120 88,121 38,121 -38,0 -44,-4 -84,-57 -24,-32 -57,-78 -73,-103 l -30,-45 -3,103 -3,102 h -39 -40 z m 164,-56 c 18,-18 21,-56 6,-85 -8,-14 -21,-19 -50,-19 h -40 v 60 60 h 34 c 19,0 42,-7 50,-16 z"
         id="path36"
         inkscape:connector-curvature="0"
         style="fill:#000000;stroke:none" />
      <path
         d="m 7372,7148 c -29,-29 -2,-72 40,-66 17,2 24,11 26,32 5,41 -37,63 -66,34 z"
         id="path38"
         inkscape:connector-curvature="0"
         style="fill:#000000;stroke:none" />
      <path
         d="m 7486,7144 c -19,-19 -20,-25 -3,-48 19,-26 61,-18 65,12 7,44 -32,67 -62,36 z"
         id="path40"
         inkscape:connector-curvature="0"
         style="fill:#000000;stroke:none" />
      <path
         d="m 8548,6863 c -15,-32 -43,-98 -64,-147 l -39,-89 -12,64 c -7,35 -20,97 -29,137 l -16,72 h -35 c -35,0 -35,-1 -29,-32 4,-18 13,-67 21,-108 23,-126 65,-314 74,-335 7,-17 13,-9 41,50 18,39 38,86 45,105 8,19 27,65 43,102 l 29,68 45,-103 c 25,-56 51,-118 57,-137 20,-60 49,-107 55,-90 3,8 26,110 52,225 25,116 48,212 50,214 2,2 17,-27 35,-65 75,-165 122,-272 141,-321 10,-29 23,-55 28,-58 5,-3 18,14 29,37 71,157 111,249 111,254 0,4 18,46 40,95 22,49 40,92 40,95 0,3 -18,4 -41,2 -40,-3 -42,-5 -63,-58 l -22,-55 -86,-3 -85,-3 -26,61 -26,60 h -73 -74 l -23,-117 c -13,-65 -26,-124 -29,-131 -2,-7 -31,47 -63,119 -32,73 -63,137 -67,141 -5,5 -20,-17 -34,-49 z m 552,-156 c 0,-1 -13,-33 -28,-70 l -28,-66 -22,62 c -12,34 -22,65 -22,70 0,4 23,7 50,7 28,0 50,-1 50,-3 z"
         id="path42"
         inkscape:connector-curvature="0"
         style="fill:#000000;stroke:none" />
      <path
         d="m 10560,6898 c -5,-13 -34,-78 -63,-146 l -54,-122 -28,135 -28,135 h -33 c -40,0 -40,0 -15,-117 11,-48 31,-149 46,-223 15,-74 30,-139 34,-143 8,-8 53,84 117,242 35,84 39,91 48,70 6,-13 24,-55 42,-94 32,-70 75,-173 88,-210 12,-32 20,-7 72,229 l 48,220 23,-55 c 94,-218 179,-408 183,-409 5,0 136,289 159,350 5,14 21,51 35,83 l 26,57 h -43 -42 l -23,-60 -24,-60 h -85 -84 l -26,60 -26,60 h -72 -72 l -29,-135 -28,-134 -22,57 c -25,68 -103,232 -110,232 -2,0 -9,-10 -14,-22 z m 530,-197 c 0,-15 -42,-111 -49,-111 -3,0 -15,24 -26,53 -11,28 -21,55 -23,60 -2,4 19,7 47,7 28,0 51,-4 51,-9 z"
         id="path44"
         inkscape:connector-curvature="0"
         style="fill:#000000;stroke:none" />
      <path
         d="m 12712,6753 -161,-168 -1,158 v 157 h -35 -35 v -245 c 0,-135 4,-245 9,-245 4,0 79,74 165,165 l 156,164 v -154 -155 h 35 35 v 245 c 0,135 -2,245 -4,245 -2,0 -76,-75 -164,-167 z"
         id="path46"
         inkscape:connector-curvature="0"
         style="fill:#000000;stroke:none" />
      <path
         d="m 14372,6893 c -6,-16 -35,-81 -65,-146 l -55,-117 -11,67 c -14,76 -30,159 -38,186 -4,14 -16,17 -78,17 h -73 l -74,-100 -73,-101 -3,101 -3,100 h -34 -35 v -235 -235 h 85 c 95,0 130,12 151,51 17,34 18,118 3,153 -7,14 -27,32 -45,41 l -33,16 67,93 c 37,52 68,93 70,92 1,-2 25,-106 53,-232 27,-125 51,-229 53,-231 2,-2 18,29 36,69 18,40 48,105 65,143 18,39 35,80 39,93 8,25 26,30 26,8 0,-8 17,-52 38,-98 21,-46 51,-113 67,-150 15,-38 31,-68 35,-68 4,0 17,51 29,113 12,61 34,167 49,234 l 27,123 49,-113 c 125,-287 150,-343 157,-351 8,-9 18,10 100,199 28,66 67,153 85,193 19,41 34,78 34,83 0,6 -19,9 -42,7 -41,-3 -43,-5 -64,-58 l -22,-55 h -88 -89 l -20,58 -20,57 h -75 -75 l -24,-125 c -14,-69 -27,-125 -30,-125 -8,0 -121,243 -121,258 0,22 -18,12 -28,-15 z m 532,-205 c -3,-13 -16,-42 -28,-65 l -21,-42 -27,64 -27,65 h 55 c 53,0 55,-1 48,-22 z m -904,-94 c 21,-54 -8,-94 -69,-94 h -31 v 60 60 h 45 c 40,0 47,-3 55,-26 z"
         id="path48"
         inkscape:connector-curvature="0"
         style="fill:#000000;stroke:none" />
      <path
         d="m 5120,6891 c -177,-94 -182,-355 -10,-451 60,-33 156,-33 218,-1 41,21 43,23 36,59 -4,20 -8,39 -10,41 -1,2 -17,-7 -35,-20 -48,-34 -124,-37 -169,-7 -75,51 -100,149 -60,235 37,83 130,107 223,57 l 48,-25 -3,48 c -3,44 -6,50 -38,65 -48,24 -153,23 -200,-1 z"
         id="path50"
         inkscape:connector-curvature="0"
         style="fill:#000000;stroke:none" />
      <path
         d="m 5938,6894 c -27,-14 -58,-60 -58,-86 0,-8 13,-19 29,-25 26,-10 31,-8 50,18 18,23 29,29 61,29 32,0 43,-5 57,-26 15,-23 15,-29 2,-52 -8,-14 -37,-39 -66,-56 -92,-55 -115,-80 -120,-130 -11,-93 40,-146 140,-146 45,0 61,5 86,26 38,32 39,57 5,73 -23,10 -30,9 -49,-9 -41,-38 -98,-22 -98,29 0,40 11,51 89,91 58,29 69,39 87,79 18,42 19,50 6,101 -19,72 -57,100 -138,100 -31,-1 -68,-7 -83,-16 z"
         id="path52"
         inkscape:connector-curvature="0"
         style="fill:#000000;stroke:none" />
      <path
         d="m 6360,6894 c -180,-78 -188,-370 -13,-455 60,-29 142,-30 205,-4 47,19 48,21 48,63 0,23 -2,42 -4,42 -3,0 -27,-12 -53,-26 -116,-62 -235,8 -236,139 -1,75 18,120 61,151 50,35 112,35 176,1 26,-14 49,-25 52,-25 2,0 4,20 4,45 0,44 -2,47 -42,65 -52,24 -148,26 -198,4 z"
         id="path54"
         inkscape:connector-curvature="0"
         style="fill:#000000;stroke:none" />
      <path
         d="m 13412,6889 c -84,-42 -132,-124 -132,-226 0,-83 22,-134 77,-184 52,-47 100,-62 178,-57 154,10 245,150 205,316 -33,138 -199,215 -328,151 z m 178,-81 c 48,-33 72,-70 77,-121 7,-61 -11,-109 -57,-151 -48,-43 -80,-52 -130,-37 -55,16 -86,45 -104,98 -20,58 -19,87 3,142 34,83 140,117 211,69 z"
         id="path56"
         inkscape:connector-curvature="0"
         style="fill:#000000;stroke:none" />
      <path
         d="m 4310,6665 v -235 h 125 125 v 35 35 h -85 -85 v 55 55 h 85 85 v 35 35 h -85 -85 v 110 110 h -40 -40 z"
         id="path58"
         inkscape:connector-curvature="0"
         style="fill:#000000;stroke:none" />
      <path
         d="m 4559,6878 c 5,-13 23,-53 40,-91 17,-37 31,-70 31,-73 0,-15 134,-304 141,-304 4,0 13,17 20,38 7,20 49,119 94,219 46,100 86,194 89,208 6,25 5,26 -35,23 -40,-3 -42,-5 -63,-58 l -22,-55 -86,-3 -85,-3 -26,61 c -26,59 -27,60 -66,60 -38,0 -40,-1 -32,-22 z m 261,-170 c 0,-2 -7,-21 -16,-43 -8,-22 -17,-48 -21,-57 -3,-10 -9,-18 -13,-18 -7,0 -50,95 -50,111 0,5 23,9 50,9 28,0 50,-1 50,-2 z"
         id="path60"
         inkscape:connector-curvature="0"
         style="fill:#000000;stroke:none" />
      <path
         d="m 5450,6665 v -235 h 35 35 v 85 85 h 105 105 v -85 -85 h 40 40 v 235 235 h -40 -40 v -115 -115 h -105 -105 v 115 115 h -35 -35 z"
         id="path62"
         inkscape:connector-curvature="0"
         style="fill:#000000;stroke:none" />
      <path
         d="m 6680,6665 v -235 h 40 40 v 85 85 h 105 105 v -85 -85 h 35 35 v 235 235 h -35 -35 v -115 -115 h -105 -105 v 115 115 h -40 -40 z"
         id="path64"
         inkscape:connector-curvature="0"
         style="fill:#000000;stroke:none" />
      <path
         d="m 7080,6891 c 0,-6 18,-49 40,-96 22,-47 40,-89 40,-93 0,-12 121,-276 130,-286 6,-6 12,-2 16,10 4,10 43,100 87,199 44,99 87,201 97,228 l 18,47 h -41 -42 l -23,-60 -24,-60 h -85 -84 l -26,60 c -26,58 -27,60 -65,60 -21,0 -38,-4 -38,-9 z m 260,-188 c 0,-5 -10,-36 -22,-70 l -22,-62 -28,66 c -15,37 -28,69 -28,70 0,2 23,3 50,3 28,0 50,-3 50,-7 z"
         id="path66"
         inkscape:connector-curvature="0"
         style="fill:#000000;stroke:none" />
      <path
         d="m 7540,6665 v -235 h 130 130 v 35 35 h -90 -90 v 55 55 h 90 90 v 35 35 h -90 -90 v 110 110 h -40 -40 z"
         id="path68"
         inkscape:connector-curvature="0"
         style="fill:#000000;stroke:none" />
      <path
         d="m 7940,6700 v -200 h -60 -60 v -35 -35 h 155 155 v 35 35 h -60 -60 v 200 200 h -35 -35 z"
         id="path70"
         inkscape:connector-curvature="0"
         style="fill:#000000;stroke:none" />
      <path
         d="m 9330,6700 v -200 h -60 -60 v -35 -35 h 155 155 v 35 35 h -55 -55 v 200 200 h -40 -40 z"
         id="path72"
         inkscape:connector-curvature="0"
         style="fill:#000000;stroke:none" />
      <path
         d="m 9570,6665 v -235 h 40 40 v 85 85 h 105 105 v -85 -85 h 40 40 v 235 235 h -40 -40 v -115 -115 h -105 -105 v 115 115 h -40 -40 z"
         id="path74"
         inkscape:connector-curvature="0"
         style="fill:#000000;stroke:none" />
      <path
         d="m 10030,6665 v -235 h 125 125 v 35 35 h -85 -85 v 55 55 h 85 85 v 35 35 h -85 -85 v 70 70 h 85 85 v 40 40 h -125 -125 z"
         id="path76"
         inkscape:connector-curvature="0"
         style="fill:#000000;stroke:none" />
      <path
         d="m 11330,6700 v -200 h -60 -60 v -35 -35 h 160 160 v 35 35 h -60 -60 v 200 200 h -40 -40 z"
         id="path78"
         inkscape:connector-curvature="0"
         style="fill:#000000;stroke:none" />
      <path
         d="m 11570,6665 v -235 h 40 40 v 235 235 h -40 -40 z"
         id="path80"
         inkscape:connector-curvature="0"
         style="fill:#000000;stroke:none" />
      <path
         d="m 11740,6665 v -235 h 40 39 l 3,92 3,92 44,-60 c 80,-107 100,-124 148,-124 38,0 57,12 36,22 -5,2 -37,39 -72,83 -36,44 -71,84 -78,88 -10,6 3,28 49,89 35,45 80,105 100,135 l 37,53 h -52 c -51,-1 -53,-2 -84,-48 -18,-26 -39,-56 -48,-67 -8,-11 -31,-42 -50,-70 l -35,-50 v 118 117 h -40 -40 z"
         id="path82"
         inkscape:connector-curvature="0"
         style="fill:#000000;stroke:none" />
      <path
         d="m 12310,6665 v -235 h 35 35 v 235 235 h -35 -35 z"
         id="path84"
         inkscape:connector-curvature="0"
         style="fill:#000000;stroke:none" />
      <path
         d="m 12980,6665 v -235 h 125 125 v 35 35 h -90 -90 v 55 55 h 90 90 v 35 35 h -90 -90 v 110 110 h -35 -35 z"
         id="path86"
         inkscape:connector-curvature="0"
         style="fill:#000000;stroke:none" />
      <path
         d="m 15140,6700 v -200 h -55 -55 v -35 -35 h 155 155 v 35 35 h -60 -60 v 200 200 h -40 -40 z"
         id="path88"
         inkscape:connector-curvature="0"
         style="fill:#000000;stroke:none" />
      <path
         d="m 15390,6665 v -235 h 35 35 v 235 235 h -35 -35 z"
         id="path90"
         inkscape:connector-curvature="0"
         style="fill:#000000;stroke:none" />
      <path
         d="m 15560,6665 v -235 h 40 39 l 3,86 3,86 68,-86 68,-86 h 50 50 l -84,103 -85,103 51,71 c 29,39 71,96 95,127 23,30 42,58 42,61 0,3 -22,5 -49,5 -47,0 -51,-3 -78,-40 -15,-22 -52,-72 -80,-112 l -53,-71 v 111 112 h -40 -40 z"
         id="path92"
         inkscape:connector-curvature="0"
         style="fill:#000000;stroke:none" />
      <g
         style="fill:#ffffff;stroke:none;fill-opacity:1"
         id="layer102">
        <path
           inkscape:connector-curvature="0"
           id="path97"
           d="m 1750,7050 v -640 h 205 c 204,0 205,0 210,23 2,12 19,123 36,247 17,124 33,232 36,240 8,19 16,-39 43,-295 12,-110 24,-203 26,-207 3,-5 99,-8 215,-8 h 209 v 640 640 h -145 -145 l -1,-362 -1,-363 -48,355 c -27,195 -49,358 -49,363 -1,4 -47,7 -104,7 h -103 l -13,-107 c -7,-60 -30,-227 -51,-373 l -38,-265 -1,373 -1,372 h -140 -140 z"
           style="fill:#ffffff;fill-opacity:1" />
        <path
           inkscape:connector-curvature="0"
           id="path99"
           d="m 2850,7050 v -640 h 160 160 v 640 640 h -160 -160 z"
           style="fill:#ffffff;fill-opacity:1" />
        <path
           inkscape:connector-curvature="0"
           id="path101"
           d="m 3290,7050 v -642 l 248,4 c 273,5 324,14 386,68 18,17 44,54 57,82 21,48 24,67 24,193 0,164 -7,183 -84,219 l -48,22 44,18 c 47,20 83,60 102,116 18,52 25,244 13,338 -17,124 -54,179 -137,202 -23,6 -163,14 -322,17 l -283,6 z m 396,396 c 17,-13 19,-29 22,-143 4,-157 -3,-183 -53,-183 h -35 v 170 170 h 23 c 13,0 32,-6 43,-14 z m 9,-557 c 5,-5 10,-56 10,-114 0,-113 -6,-127 -57,-139 l -28,-6 v 141 142 l 32,-7 c 18,-3 37,-11 43,-17 z"
           style="fill:#ffffff;fill-opacity:1" />
      </g>
    </g>
  </g>
</svg>
