<?xml version="1.0" encoding="UTF-8" standalone="no"?>
<!-- Created with Inkscape (http://www.inkscape.org/) -->

<svg
   xmlns:dc="http://purl.org/dc/elements/1.1/"
   xmlns:cc="http://creativecommons.org/ns#"
   xmlns:rdf="http://www.w3.org/1999/02/22-rdf-syntax-ns#"
   xmlns:svg="http://www.w3.org/2000/svg"
   xmlns="http://www.w3.org/2000/svg"
   xmlns:sodipodi="http://sodipodi.sourceforge.net/DTD/sodipodi-0.dtd"
   xmlns:inkscape="http://www.inkscape.org/namespaces/inkscape"
   width="423.31mm"
   height="162.99001mm"
   viewBox="0 0 423.31 162.99001"
   version="1.1"
   id="svg431"
   inkscape:version="0.92.2 (5c3e80d, 2017-08-06)"
   sodipodi:docname="mibLogo-img.svg">
  <defs
     id="defs425" />
  <sodipodi:namedview
     id="base"
     pagecolor="#ffffff"
     bordercolor="#666666"
     borderopacity="1.0"
     inkscape:pageopacity="0.0"
     inkscape:pageshadow="2"
     inkscape:zoom="0.35"
     inkscape:cx="400"
     inkscape:cy="560"
     inkscape:document-units="mm"
     inkscape:current-layer="layer1"
     showgrid="false"
     inkscape:window-width="3840"
     inkscape:window-height="1973"
     inkscape:window-x="-18"
     inkscape:window-y="-18"
     inkscape:window-maximized="1" />
  <metadata
     id="metadata428">
    <rdf:RDF>
      <cc:Work
         rdf:about="">
        <dc:format>image/svg+xml</dc:format>
        <dc:type
           rdf:resource="http://purl.org/dc/dcmitype/StillImage" />
        <dc:title></dc:title>
      </cc:Work>
    </rdf:RDF>
  </metadata>
  <g
     inkscape:label="Ebene 1"
     inkscape:groupmode="layer"
     id="layer1"
     transform="translate(0,-134.01)">
    <path
       style="fill:#000000;stroke:none;stroke-width:0.02645833"
       inkscape:connector-curvature="0"
       id="path94"
       d="m 44.761527,296.49728 c -0.687917,-0.42334 -2.460625,-2.59292 -2.460625,-3.04271 0,-0.0529 -0.978959,-1.61396 -2.169584,-3.43958 -2.143125,-3.22792 -4.841875,-7.40834 -8.598958,-13.25563 -1.031875,-1.5875 -2.989792,-4.65667 -4.339167,-6.77333 -1.375833,-2.14313 -3.545417,-5.55625 -4.868333,-7.62 -2.2225,-3.46604 -3.307292,-5.15938 -8.598959,-13.41438 -1.084791,-1.69333 -2.248958,-3.51896 -2.54,-4.04812 -0.502708,-0.84667 -2.3018754,-3.70417 -6.5352084,-10.34521 -1.402292,-2.2225 -2.883958,-4.81541 -4.07458304,-7.14375 -0.79375,-1.61395 -0.767292,-2.77812 0.07937,-3.91583 1.42875004,-1.85208 3.91583304,-2.88396 5.50333304,-2.27542 0.370417,0.1323 4.6566674,6.08542 4.9477084,6.85271 0.05292,0.15875 1.005417,1.64042 2.116667,3.30729 2.672292,4.04812 6.773333,10.45104 13.123333,20.39937 1.058334,1.66688 3.042709,4.78896 4.445001,6.93209 1.375833,2.16958 2.513541,3.96875 2.513541,4.02166 0,0.0529 1.031875,1.7198 2.328334,3.67771 1.27,1.95792 3.254375,5.08 4.418541,6.90563 1.164167,1.85208 2.778125,4.39208 3.571875,5.63562 0.820209,1.27 1.825625,2.8575 2.248959,3.54542 0.449791,0.68792 1.613958,2.51354 2.592916,4.04812 l 1.799167,2.77813 h 11.747499 11.7475 l 3.360208,-2.24896 c 3.307292,-2.2225 7.223126,-4.36562 7.937501,-4.36562 0.185209,0 0.423334,-0.3175 0.529167,-0.71438 0.3175,-1.45521 0.423333,-1.66687 1.084792,-2.46062 0.582083,-0.71438 0.820208,-0.79375 2.090208,-0.79375 1.5875,0 2.38125,0.34395 5.741458,2.4077 1.137709,0.71438 2.116667,1.29646 2.196042,1.29646 0.05292,0 0.714375,0.37042 1.455208,0.82021 l 1.349375,0.84667 3.995217,-0.15875 c 5.45041,-0.21167 8.70479,-0.9525 12.93812,-2.96334 5.31813,-2.48708 8.12271,-4.445 12.51479,-8.65187 2.16959,-2.06375 2.51354,-2.51354 2.51354,-3.25438 0,-1.21708 -1.16416,-5.10645 -2.4077,-7.99041 -0.66146,-1.5875 -1.03188,-2.8575 -1.03188,-3.59834 0,-2.24895 1.34938,-6.08541 5.92667,-16.90687 4.41854,-10.4775 6.11187,-17.85937 4.65666,-20.24062 -0.635,-1.05833 -0.84666,-1.05833 -2.75166,-0.18521 -2.67229,1.21708 -5.47688,1.11125 -7.01146,-0.26458 -0.3175,-0.29104 -0.9525,-1.21709 -1.37583,-2.01084 -0.39688,-0.79375 -1.03188,-1.71979 -1.4023,-2.06375 -1.08479,-1.00541 -1.50812,-3.20145 -0.92604,-4.73604 0.23813,-0.635 0.21167,-0.79375 -0.21166,-1.00541 -0.26459,-0.1323 -0.92605,-0.68792 -1.45521,-1.21709 -0.89959,-0.87312 -1.00542,-1.11125 -1.00542,-2.27541 0,-1.50813 -0.3175,-1.93146 -1.50812,-1.93146 -1.19063,0 -3.51896,-0.92604 -4.41855,-1.74625 -0.68791,-0.66146 -0.74083,-0.82021 -0.635,-2.32834 0.0794,-0.97895 0.50271,-2.61937 1.0848,-4.15395 0.52916,-1.4023 1.08479,-3.46605 1.21708,-4.63021 l 0.26458,-2.09021 -1.24354,-2.51354 -1.27,-2.51354 -1.19062,-0.0529 c -0.635,-0.0529 -1.77271,-0.21167 -2.51355,-0.37042 -1.24354,-0.29104 -1.42875,-0.26458 -2.14312,0.26458 -0.635,0.47625 -1.16417,0.60854 -2.59292,0.60854 -2.06375,0 -2.83104,-0.39687 -3.75708,-2.03729 -0.3175,-0.55562 -0.92604,-1.21708 -1.34938,-1.42875 -0.44979,-0.23812 -1.08479,-0.76729 -1.42875,-1.21709 -0.52916,-0.68791 -0.60854,-1.05833 -0.58208,-3.0427 0,-1.85209 0.18521,-2.72521 0.9525,-5.02709 0.84667,-2.46062 5.21229,-11.72104 7.3025,-15.53104 1.37583,-2.48708 4.1275,-6.27062 5.45042,-7.48771 3.83646,-3.54541 5.00062,-4.52437 7.3025,-6.27062 5.715,-4.31271 12.99104,-7.54063 19.55271,-8.67834 3.28083,-0.58208 9.02229,-0.52916 12.22375,0.1323 4.52437,0.92604 7.75229,2.30187 11.82687,5.02708 3.94229,2.61937 8.51957,7.32896 11.24478,11.56229 l 0.71438,1.11125 1.24354,-0.39687 c 9.63083,-3.04271 17.85937,-3.54542 22.67479,-1.34938 2.03729,0.92604 4.68313,3.54542 5.52979,5.3975 1.61396,3.65125 1.45521,8.99583 -0.47625,16.88042 -1.45521,5.90021 -1.82562,8.59896 -1.64041,11.35063 0.21166,2.72521 0.79375,4.63021 1.95791,6.50875 1.21709,1.905 1.82563,2.40771 4.86834,3.96875 3.0427,1.53458 3.94229,2.48708 3.94229,4.07458 0,2.32833 -2.46063,5.52979 -5.18584,6.6675 -1.74625,0.74083 -5.9002,0.82021 -8.5725,0.13229 -2.96333,-0.74083 -6.985,-2.75166 -9.92187,-4.94771 -2.91042,-2.19604 -7.32896,-6.58812 -9.39271,-9.3927 l -1.53458,-2.06375 -0.15875,0.8202 c -0.0794,0.4498 -0.15875,1.82563 -0.18521,3.09563 0,1.24354 -0.10583,2.96333 -0.21167,3.81 l -0.18521,1.50812 1.69334,0.9525 c 0.92604,0.52917 2.30187,1.45521 3.04271,2.06375 0.76729,0.60855 1.66687,1.29646 2.03729,1.56105 1.42875,0.97895 6.00604,5.47687 7.88458,7.72583 4.23333,5.08 9.86896,14.79021 12.62063,21.82812 0.52916,1.37584 1.03187,2.61938 1.11125,2.72521 0.23812,0.37042 2.19605,-2.67229 3.4925,-5.42396 0.68791,-1.50812 1.98438,-4.20687 2.88395,-6.0325 0.87313,-1.82562 1.66688,-3.59833 1.77271,-3.96875 0.26459,-0.87312 4.65667,-10.31875 5.68854,-12.19729 0.42334,-0.82021 1.03188,-2.19604 1.32292,-3.01625 0.29104,-0.84666 0.82021,-2.06375 1.19063,-2.72521 0.42333,-0.76729 0.66145,-1.5875 0.66145,-2.35479 0,-2.2225 1.53459,-4.04812 4.78896,-5.66208 0.87313,-0.44979 2.35479,-0.9525 3.28085,-1.16417 2.11665,-0.42333 2.19604,-0.47625 2.4077,-1.61396 0.0794,-0.5027 0.68791,-1.56104 1.29646,-2.30187 0.60854,-0.76729 1.48167,-2.11667 1.93145,-2.98979 0.68792,-1.34938 3.06918,-9.47209 4.25979,-14.52563 0.89959,-3.73063 3.33376,-10.66271 5.26521,-14.94896 1.03188,-2.32833 3.75708,-6.87917 5.45043,-9.12813 5.47686,-7.27604 13.28208,-11.95916 21.48416,-12.85875 3.41311,-0.37041 10.21292,-0.15875 13.73187,0.42334 3.75709,0.60854 8.86355,2.11666 13.07042,3.86291 2.11667,0.87313 4.39208,1.79917 5.05354,2.06375 1.5875,0.60855 10.92729,5.42396 13.75834,7.06438 1.24354,0.74083 2.54,1.50812 2.91041,1.71979 0.37042,0.18521 1.32292,0.87313 2.11667,1.48167 3.14854,2.32833 2.75167,5.47687 -1.19063,9.47208 -2.03729,2.09021 -2.61937,2.46063 -5.82083,3.70417 -2.54,1.00541 -2.67229,1.19062 -3.06917,4.78896 -0.15875,1.42875 -0.34395,2.98979 -0.39687,3.43958 -0.18521,1.34937 -1.5875,3.12208 -3.54542,4.57729 -1.82562,1.32292 -2.75166,2.43417 -3.09562,3.70417 -0.21167,0.82021 0.47625,3.67771 2.09021,8.75771 1.64041,5.21229 1.79916,6.27063 1.03187,7.51417 -0.3175,0.50271 -1.32292,1.48166 -2.2225,2.16958 l -1.64042,1.24354 -2.51354,-0.18521 c -1.37583,-0.0794 -2.83104,-0.23812 -3.22791,-0.3175 -0.60855,-0.13229 -1.00542,0.1323 -2.96334,2.0373 -2.64583,2.54 -3.20146,3.54541 -4.36562,7.99041 -0.97896,3.75709 -1.61396,5.29167 -2.46063,5.84729 -1.03187,0.66146 -3.88938,1.29646 -5.18583,1.11125 -1.45521,-0.1852 -3.49251,-0.87312 -4.02167,-1.34937 -0.635,-0.55563 -2.6723,-1.48167 -2.98979,-1.37583 -0.15875,0.0529 0.34396,0.5027 1.13771,1.03187 1.64042,1.03188 2.83104,2.59292 3.20145,4.10104 0.3175,1.42875 0.29105,6.40292 -0.0529,8.06979 -0.23813,1.03188 -0.55562,1.64042 -1.21709,2.24896 l -0.89958,0.87313 0.29105,8.255 c 0.15875,4.55083 0.34395,8.70479 0.44979,9.2075 0.34396,1.95791 2.51354,5.15937 5.08,7.46125 6.35,5.715 17.99166,10.68916 30.98271,13.28208 3.46604,0.68792 11.87979,1.87854 12.01208,1.71979 0.0265,-0.0529 0.26458,-0.58208 0.47625,-1.16417 0.52917,-1.4552 2.19604,-2.35479 3.96875,-2.14312 1.29646,0.13229 2.96333,0.87312 4.31271,1.905 l 0.82021,0.60854 2.30187,-2.96333 c 1.24354,-1.64042 2.88396,-3.73063 3.62479,-4.68313 0.71438,-0.9525 1.95792,-2.61937 2.75167,-3.70416 0.79375,-1.0848 2.14312,-2.72521 2.98979,-3.6248 1.50813,-1.64041 1.56104,-1.66687 2.93688,-1.66687 1.40229,0 2.91041,0.58208 4.28625,1.64042 1.50812,1.16416 1.71979,2.83104 0.635,4.86833 -0.635,1.16417 -0.66146,1.40229 -0.39688,2.43417 0.15875,0.60854 0.29104,1.32291 0.29104,1.5875 0,0.84666 -1.64041,3.01625 -4.41854,5.84729 l -2.69876,2.75166 1.5875,1.05834 c 1.95792,1.32291 3.57188,3.09562 3.94229,4.39208 0.55563,1.79917 0.60854,5.05354 0.15875,7.64646 -0.23812,1.32292 -0.42333,2.56646 -0.42333,2.72521 0,0.21166 8.62542,0.26458 31.03562,0.18521 24.92375,-0.0529 31.19438,0 31.98813,0.26458 1.21708,0.42333 1.79917,1.77271 1.79917,4.15396 0,1.95791 -0.29105,2.91041 -1.27,3.91583 l -0.68792,0.71438 H 233.48882 c -184.837918,0 -187.907085,0 -188.727293,-0.50271 z m 375.099783,-4.1275 v -1.19063 h -3.75708 c -2.09021,0.0265 -17.30375,0.13229 -33.81375,0.26459 -16.51,0.10583 -30.05667,0.1852 -30.08313,0.15875 -0.0265,0 0.39688,-0.68792 0.9525,-1.50813 1.42875,-2.14312 2.72521,-6.21771 2.75167,-8.70479 0.0265,-2.16958 -0.18521,-2.72521 -1.56104,-4.23333 -1.11125,-1.19063 -4.47146,-3.14855 -5.97958,-3.4925 -0.635,-0.1323 -1.24355,-0.34396 -1.37584,-0.47625 -0.26458,-0.26459 4.52438,-7.67292 4.94771,-7.67292 0.37042,0 0.15875,0.58208 -0.84667,2.38125 -0.58208,1.03187 -0.97895,1.85208 -0.87312,1.85208 0.10583,0 1.66687,-1.48166 3.4925,-3.30729 l 3.28083,-3.28083 -0.71437,-1.64042 -0.71438,-1.64042 1.05834,-1.24354 c 0.58208,-0.68791 1.05833,-1.32291 1.05833,-1.42875 0,-0.29104 -2.19604,-1.27 -2.35479,-1.03187 -0.0794,0.10583 -0.47625,0.68791 -0.84667,1.27 -0.39687,0.58208 -1.50812,2.06375 -2.48708,3.30729 -0.97896,1.24354 -1.98438,2.54 -2.2225,2.91042 -0.39688,0.60854 -1.56104,2.11666 -6.50875,8.41375 -0.9525,1.19062 -1.82563,2.16958 -1.93146,2.16958 -0.3175,0 -1.48167,-0.84667 -3.38667,-2.43417 -2.30187,-1.95791 -2.98979,-1.98437 -3.41312,-0.0794 -0.42334,1.74625 -0.74084,1.98437 -2.91042,1.98437 -5.42396,0 -18.36208,-2.67229 -26.59062,-5.47687 -3.12209,-1.08479 -9.26042,-3.73063 -11.08605,-4.78896 -5.68854,-3.28083 -9.60437,-6.61458 -11.85333,-10.05417 -0.79375,-1.24354 -1.64042,-2.69875 -1.85208,-3.20146 -0.26459,-0.635 -0.50271,-3.01625 -0.74084,-7.3025 -0.66145,-11.40353 -0.92604,-13.86416 -1.61395,-15.18707 -0.89959,-1.64042 -0.82021,-2.09021 0.1852,-1.21709 1.11125,0.89959 2.56646,0.84667 3.06917,-0.13229 0.42333,-0.82021 0.44979,-4.1275 0.0529,-5.715 -0.3175,-1.19062 -0.9525,-1.87854 -2.88396,-3.09562 -1.77271,-1.13771 -2.09021,-4.7625 -0.52917,-6.32355 0.60854,-0.60854 0.97896,-0.74083 1.95792,-0.74083 1.40229,0 3.91583,0.79375 5.84729,1.85208 1.71979,0.9525 2.56646,1.13771 3.81,0.79375 1.16417,-0.29104 1.29646,-0.635 2.14313,-4.81541 0.55562,-2.77813 1.40229,-4.73604 2.7252,-6.27063 1.79917,-2.09021 5.08,-5.08 6.19125,-5.60916 1.29646,-0.60855 2.2225,-0.58209 4.73605,0.21166 l 1.37583,0.42334 1.21708,-1.00542 c 0.66146,-0.52917 1.21709,-1.13771 1.21709,-1.29646 0,-0.15875 -0.71438,-2.43417 -1.61396,-5.05354 -0.87313,-2.61938 -1.82563,-5.76792 -2.09021,-7.01146 l -0.50271,-2.24896 0.89958,-1.85209 c 0.66146,-1.37583 1.29646,-2.19604 2.43417,-3.175 0.84667,-0.71437 2.09021,-1.93145 2.75167,-2.67229 1.19062,-1.32291 1.21708,-1.37583 1.37583,-3.57187 0.21167,-3.04271 0.89958,-5.95313 1.5875,-6.72042 0.37042,-0.37042 1.32292,-0.84667 2.51354,-1.19062 2.77813,-0.79375 5.68854,-2.83105 7.14375,-5.00063 0.60854,-0.89958 1.11125,-1.79917 1.11125,-1.95792 0,-0.1852 -0.26458,-0.44979 -0.60854,-0.60854 -0.3175,-0.15875 -1.71979,-0.97896 -3.09562,-1.82562 -1.37584,-0.87313 -3.22792,-1.93146 -4.10105,-2.40771 -0.87312,-0.44979 -3.0427,-1.61396 -4.81541,-2.56646 -1.77271,-0.9525 -3.4925,-1.79917 -3.83646,-1.905 -0.3175,-0.10583 -1.27,-0.52917 -2.06375,-0.92604 -2.80458,-1.40229 -7.3025,-3.12208 -11.37708,-4.31271 -6.42938,-1.905 -8.04334,-2.14312 -14.2875,-2.14312 -4.70959,0.0265 -5.68855,0.10583 -7.51417,0.58208 -7.22313,1.98437 -13.0175,6.27062 -17.54187,13.04396 -2.09021,3.09562 -2.91042,4.65666 -4.70958,8.83708 -1.93146,4.49792 -2.77813,7.19667 -5.55625,17.30375 -1.4023,5.15938 -2.83105,9.92188 -3.175,10.6098 -0.34396,0.66146 -1.11125,1.85208 -1.69334,2.59291 l -1.08479,1.37584 0.66146,0.58208 c 0.66146,0.58208 0.89958,1.82563 0.44979,2.51354 -0.37042,0.58209 -1.64042,0.87313 -4.36562,1.03188 -2.3548,0.13229 -2.93688,0.26458 -4.63021,1.05833 -1.29646,0.635 -2.03729,1.16417 -2.30188,1.66688 -0.21166,0.42333 -0.3175,0.8202 -0.23812,0.89958 0.10583,0.0794 0.21166,0.97896 0.26458,1.98437 0.13229,1.98438 -0.0529,2.30188 -1.21708,2.48709 -0.55563,0.0529 -0.79375,0.44979 -1.61396,2.59291 -0.52917,1.37584 -1.905,4.36563 -3.09563,6.61459 -1.16416,2.24896 -2.54,5.18583 -3.0427,6.48229 -0.89959,2.27542 -6.42938,13.73187 -8.12271,16.80104 -0.44979,0.79375 -1.42875,2.98979 -2.19604,4.86833 -0.74084,1.87854 -1.48167,3.41312 -1.61396,3.43958 -0.13229,0 -0.84667,-1.74625 -1.61396,-3.94229 -2.88396,-8.46666 -6.69396,-16.53645 -10.53042,-22.30437 -2.91041,-4.36562 -4.28625,-6.05896 -7.83166,-9.60437 -3.28084,-3.25438 -6.29709,-5.55625 -9.6573,-7.38188 -3.65125,-1.95792 -3.54541,-1.85208 -2.83104,-2.98979 0.87313,-1.42875 1.13771,-4.97417 0.97896,-13.0175 -0.23812,-10.34521 0.15875,-12.06501 1.87854,-8.0698 1.82563,4.2598 2.80459,6.1648 4.65667,8.91647 2.19604,3.30729 2.51354,3.6777 5.34458,6.6675 4.84188,5.05354 10.50396,8.54604 15.08125,9.28687 3.25438,0.52917 6.32354,-0.55562 7.48771,-2.59292 0.66146,-1.21708 0.635,-1.24354 -1.50812,-2.11666 -1.64042,-0.66146 -3.78355,-2.24896 -5.2123,-3.81 -1.64041,-1.82563 -2.91041,-5.18584 -3.25437,-8.59896 -0.34396,-3.36021 0.0794,-7.99042 1.16417,-12.1973 1.93145,-7.72583 2.16958,-9.47208 1.74625,-12.54125 -0.55563,-4.07458 -2.11667,-6.13833 -5.50334,-7.35541 -1.5875,-0.58209 -2.2225,-0.66146 -5.50333,-0.66146 -4.33917,0 -7.51417,0.55562 -13.62604,2.43416 -3.65125,1.11125 -3.86292,1.13771 -4.18042,0.68792 -0.18521,-0.26458 -1.27,-1.77271 -2.38125,-3.38667 -2.27542,-3.28083 -6.08542,-7.27604 -9.04875,-9.47208 -2.43417,-1.79917 -6.11187,-3.65125 -9.2075,-4.60375 -2.19604,-0.68792 -2.56646,-0.74083 -7.59354,-0.71437 -4.57729,0 -5.60917,0.0794 -7.64646,0.58208 -6.29708,1.5875 -13.07042,5.18583 -18.415,9.78958 -2.24896,1.95792 -6.53521,6.72042 -7.19667,7.99042 -0.1852,0.34396 -0.97895,1.71979 -1.71979,3.01625 -2.67229,4.55083 -6.90562,13.41437 -7.46125,15.68979 -1.00541,3.94229 -0.44979,5.34458 0.635,1.64042 0.58209,-1.95792 2.38125,-6.24417 2.80459,-6.69396 0.37041,-0.42333 1.03187,0.39687 1.03187,1.27 0,0.44979 -0.37042,2.11667 -0.79375,3.67771 -1.21708,4.36562 -1.45521,6.985 -0.635,7.24959 0.18521,0.0529 0.34396,-0.55563 0.44979,-1.56105 0.0794,-0.92604 0.37042,-2.59292 0.60854,-3.75708 l 0.47625,-2.06375 0.4498,0.92604 c 0.39687,0.76729 1.24354,1.45521 1.42875,1.19062 0.0264,-0.0529 0.15875,-0.9525 0.3175,-2.01083 0.3175,-2.11667 0.87312,-3.22792 1.64041,-3.22792 0.34396,0 0.68792,0.50271 1.21709,1.79917 0.39687,0.97896 1.40229,2.96333 2.2225,4.41854 0.79375,1.45521 1.905,3.57188 2.43416,4.68313 0.52917,1.13771 1.27,2.51354 1.64042,3.04271 0.92604,1.37583 1.50812,3.54542 1.50812,5.68854 0,1.74625 -0.34395,3.04271 -2.11666,8.01688 -0.55563,1.48166 -0.55563,1.5875 -0.10584,1.905 0.60855,0.44979 1.50813,0.42333 3.12209,-0.0529 1.69333,-0.52917 3.175,-0.50271 3.62479,0.0265 0.29104,0.34395 0.26458,0.74083 0,2.30187 -0.21167,1.05833 -0.42333,2.2225 -0.47625,2.59292 -0.10583,0.635 0.0265,0.76729 1.29646,1.37583 0.76729,0.37042 1.71979,0.79375 2.14312,0.9525 0.92604,0.37042 0.89959,0.92604 -0.0794,2.77813 -1.05834,2.03729 -1.05834,2.19604 -0.0265,2.7252 0.74083,0.39688 1.00542,0.7673 1.42875,2.01084 0.76729,2.32833 1.69333,2.51354 4.23333,0.92604 1.16417,-0.74083 1.40229,-0.79375 2.88396,-0.635 1.95792,0.18521 2.61938,0.58208 3.4925,2.06375 2.30188,3.94229 1.00542,11.40354 -3.99521,23.3627 -2.46062,5.8473 -5.05354,12.40896 -5.60916,14.23459 l -0.55563,1.79916 1.03188,2.43417 c 1.03187,2.46063 2.06375,5.76792 2.77812,8.91646 0.50271,2.19604 0.39688,2.35479 -3.06917,5.68854 -5.84729,5.63563 -11.48291,9.18104 -18.15041,11.43 -4.445,1.48167 -12.11792,2.14313 -15.319377,1.32292 -0.740833,-0.21167 -2.619375,-1.11125 -4.153958,-2.06375 -1.561042,-0.92604 -3.254375,-1.95792 -3.81,-2.27542 -1.296458,-0.79375 -1.375833,-0.76729 -1.084792,0.23813 0.423334,1.48166 -0.370416,2.8575 -1.613958,2.8575 -1.190625,0 -4.445,1.24354 -6.323542,2.4077 -0.952501,0.60855 -2.751667,1.82563 -3.995209,2.72521 l -2.248958,1.61396 -13.573125,-0.0794 -13.573124,-0.0794 -0.9525,-1.50812 c -0.529167,-0.82021 -1.799167,-2.83105 -2.831042,-4.445 -1.031875,-1.5875 -2.010833,-3.14855 -2.196042,-3.43959 -0.15875,-0.26458 -0.9525,-1.48166 -1.719791,-2.67229 -0.767292,-1.19062 -1.984375,-3.12208 -2.725209,-4.28625 -0.714375,-1.16417 -2.69875,-4.25979 -4.365625,-6.87917 -1.666875,-2.61937 -3.624791,-5.715 -4.365625,-6.87916 -3.466042,-5.55625 -5.900208,-9.36625 -7.328958,-11.45646 -0.846667,-1.27 -1.534584,-2.38125 -1.534584,-2.43417 0,-0.0794 -1.031875,-1.74625 -2.301875,-3.70416 -2.196041,-3.38667 -3.386666,-5.23875 -8.7312504,-13.6525 -1.243541,-1.95792 -2.672291,-4.20688 -3.175,-4.94771 -0.47625,-0.76729 -1.031875,-1.40229 -1.217083,-1.40229 -0.211667,0 -0.608542,0.26458 -0.899583,0.60854 l -0.555625,0.58208 1.217083,1.85209 c 0.687917,1.03187 1.772708,2.72521 2.434167,3.75708 2.460625,3.96875 5.6885414,8.99583 6.9585414,10.92729 0.740834,1.08479 1.5875,2.40771 1.878542,2.93687 0.529167,0.89959 1.534583,2.48709 6.641042,10.42459 1.164166,1.79916 3.069166,4.78896 4.233333,6.61458 1.164167,1.85208 3.148542,4.92125 4.392084,6.82625 1.243541,1.93146 2.328333,3.62479 2.38125,3.78354 0.05292,0.13229 1.031875,1.69334 2.169583,3.41313 1.137708,1.74625 3.122083,4.84187 4.418542,6.87916 1.296458,2.0373 3.280833,5.15938 4.418541,6.93209 l 2.06375,3.22791 186.742917,0.0265 H 419.86131 Z M 114.26757,180.87436 c 0,-0.15875 -0.26459,-0.71437 -0.58209,-1.27 -0.55562,-0.92604 -0.60854,-0.9525 -0.68791,-0.39687 -0.0529,0.34395 0.10583,0.89958 0.3175,1.27 0.42333,0.635 0.9525,0.84667 0.9525,0.39687 z" />
  </g>
</svg>
